# xmcd
#
# Track frame offsets:
# 150
# 15978
# 34370
# 49789
# 68352
# 88122
# 106225
# 124585
# 143226
# 165614
# 181547
# 197051
# 213015
#
# Disc length: 3417 seconds
#
#
# Revision: 0
# Processed by: cddbd v1.5.1PL2 Copyright (c) Steve Scherf et al.
# Submitted via: FreeRIP 2.945 
#
DISCID=a00d570d
DTITLE=C-Mone - The Butterfly Effect
DYEAR=2006
DGENRE=UKHH
TTITLE0=Catch Me If U Can
TTITLE1=Nightvision
TTITLE2=Article 5
TTITLE3=Stan Bac [ft. Smiley]
TTITLE4=Disfunktional
TTITLE5=Seconf After Second
TTITLE6=The Magnificent 7 [ft. Pariz 1, Cappo, Matic, Smiley, Cizzigrim, Pijin and Midnyte]
TTITLE7=Inside Out
TTITLE8=Ode To Hip-Hop [ft. P.Brothers and Big Trev]
TTITLE9=Ride
TTITLE10=Black Widow
TTITLE11=Watching U
TTITLE12=The Nina C-Mone Theory [ft. Nina Smith]
EXTD=
EXTT0=
EXTT1=
EXTT2=
EXTT3=
EXTT4=
EXTT5=
EXTT6=
EXTT7=
EXTT8=
EXTT9=
EXTT10=
EXTT11=
EXTT12=
PLAYORDER=
